<svg version="1.2" xmlns="http://www.w3.org/2000/svg" viewBox="0 0 162 40" width="162" height="40" fill="#5c6a7a">
	<title>logo_basico_footer-svg</title>
	<defs>
		<clipPath clipPathUnits="userSpaceOnUse" id="cp1">
			<path d="m1.3 0.95h159.2v38.27h-159.2z"/>
		</clipPath>
	</defs>
	<g id="Grupo_21532">
		<g id="Clip-Path" clip-path="url(#cp1)">
			<g id="Layer">
				<g id="Grupo_21531">
					<path id="Trazado_20827" class="s0" d="m8.3 31.7q-7 0-7-7.9v-19.9q0-0.4 0.1-0.9 0.1-0.4 0.4-0.8 0.3-0.4 0.7-0.6 0.4-0.2 0.8-0.3 0.1 0 0.2 0 0.1 0 0.1 0 0.1 0 0.2 0 0.1 0 0.2 0 0.4-0.1 0.9 0 0.4 0.2 0.8 0.4 0.4 0.3 0.6 0.7 0.3 0.4 0.3 0.9 0 0.1 0 0.2 0 0 0 0.1 0 0.1 0 0.2 0 0.1 0 0.1v19.6q0 3.8 3.2 3.8h0.6 0.6q0.1-0.1 0.2-0.1 0.1 0 0.2 0.1 0.2 0 0.2 0.1 0.1 0.1 0.2 0.2 0.1 0.2 0.1 0.4 0.1 0.2 0.1 0.4 0 0.2 0 0.4 0 0.2 0 0.4 0 0.2 0 0.4 0 0.2-0.1 0.5 0 0.2-0.1 0.4-0.1 0.2-0.2 0.3-0.1 0.2-0.3 0.3-0.2 0.1-0.3 0.2-0.2 0.1-0.4 0.2-0.2 0-0.4 0-0.2 0.1-0.5 0.1-0.2 0-0.4 0-0.2 0.1-0.5 0.1-0.2 0-0.4 0"/>
					<path id="Trazado_20828" fill-rule="evenodd" class="s0" d="m23.9 31.7q-0.8 0-1.5-0.1-0.7-0.1-1.4-0.2-0.7-0.2-1.4-0.5-0.7-0.2-1.3-0.5-0.6-0.4-1.1-0.8-0.5-0.4-1-0.8-0.4-0.5-0.8-1-0.4-0.6-0.7-1.2-0.4-0.6-0.6-1.3-0.3-0.7-0.4-1.4-0.2-0.7-0.3-1.4-0.1-0.8 0-1.5-0.1-0.7 0-1.5 0.1-0.7 0.3-1.4 0.1-0.7 0.4-1.4 0.2-0.7 0.6-1.4 0.3-0.6 0.7-1.1 0.3-0.5 0.8-1 0.5-0.5 1-0.9 0.5-0.4 1.1-0.7 0.6-0.3 1.3-0.6 0.7-0.2 1.4-0.4 0.7-0.1 1.4-0.2 0.7-0.1 1.5-0.1 0.7 0 1.4 0.1 0.7 0.1 1.4 0.2 0.7 0.2 1.4 0.4 0.7 0.3 1.3 0.6 0.6 0.3 1.1 0.7 0.5 0.4 1 0.9 0.5 0.5 0.9 1 0.4 0.5 0.7 1.1 0.3 0.7 0.5 1.4 0.3 0.7 0.5 1.4 0.1 0.7 0.2 1.4 0.1 0.8 0.1 1.5 0 0.7-0.1 1.5-0.1 0.7-0.2 1.4-0.2 0.7-0.5 1.4-0.2 0.7-0.5 1.4-0.4 0.6-0.7 1.1-0.4 0.5-0.9 1-0.5 0.5-1 0.9-0.5 0.4-1.1 0.7-0.6 0.3-1.3 0.6-0.7 0.3-1.4 0.4-0.7 0.2-1.4 0.3-0.7 0-1.4 0m0-4q0.5 0 1-0.1 0.6-0.1 1-0.3 0.5-0.2 1-0.6 0.4-0.3 0.7-0.7 0.4-0.5 0.7-1.1 0.3-0.6 0.5-1.3 0.2-0.6 0.2-1.3 0.1-0.6 0.1-1.3 0-0.7-0.1-1.3 0-0.7-0.2-1.3-0.2-0.7-0.5-1.3-0.3-0.6-0.7-1.1-0.7-0.8-1.7-1.2-1-0.5-2-0.5-1.1 0-2.1 0.5-1 0.4-1.7 1.2-0.4 0.5-0.7 1.1-0.3 0.6-0.5 1.3-0.2 0.6-0.2 1.3-0.1 0.6 0 1.3-0.1 0.7 0 1.3 0 0.7 0.2 1.3 0.2 0.7 0.5 1.3 0.3 0.6 0.7 1.1 0.3 0.4 0.8 0.7 0.4 0.4 0.9 0.6 0.5 0.2 1 0.3 0.5 0.1 1.1 0.1z"/>
					<path id="Trazado_20829" fill-rule="evenodd" class="s0" d="m48.3 39.2q-0.6 0-1.1 0-0.6 0-1.1-0.1-0.6 0-1.1-0.1-0.6-0.1-1.1-0.2-0.5-0.1-1-0.2-0.5-0.2-1-0.3-0.5-0.2-1-0.4-0.4-0.2-0.9-0.4-0.2-0.1-0.4-0.2-0.2-0.1-0.3-0.3-0.2-0.2-0.3-0.4-0.1-0.2-0.2-0.4 0-0.2-0.1-0.4 0-0.2 0.1-0.3 0-0.2 0-0.4 0.1-0.2 0.2-0.4 0.1-0.1 0.2-0.3 0.1-0.1 0.2-0.3 0.1-0.1 0.3-0.2 0.1-0.1 0.3-0.2 0.2 0 0.4-0.1 0.2 0 0.4 0 0.1 0 0.3 0 0.2 0.1 0.4 0.2 0.4 0.2 0.8 0.4 0.5 0.2 0.9 0.3 0.4 0.2 0.9 0.3 0.4 0.1 0.9 0.2 0.4 0.1 0.7 0.1 0.4 0.1 0.7 0.1 0.4 0 0.7 0 0.4 0.1 0.7 0.1 5.7 0 5.7-5.5v-2.8q-0.3 0.4-0.6 0.8-0.2 0.4-0.6 0.8-0.3 0.3-0.7 0.6-0.4 0.3-0.8 0.5-0.5 0.3-1 0.5-0.5 0.2-1 0.3-0.5 0.1-1 0.2-0.6 0-1.1 0-0.6 0-1.3 0-0.6-0.1-1.2-0.3-0.6-0.1-1.2-0.4-0.6-0.2-1.1-0.5-0.6-0.4-1-0.8-0.5-0.4-0.9-0.8-0.4-0.5-0.7-1-0.4-0.5-0.6-1-0.6-1.3-0.9-2.7-0.3-1.3-0.3-2.7 0-1.4 0.3-2.8 0.3-1.3 0.9-2.6 0.2-0.5 0.6-1 0.3-0.5 0.7-1 0.4-0.4 0.9-0.8 0.4-0.4 1-0.7 0.5-0.4 1.1-0.6 0.6-0.3 1.2-0.4 0.6-0.2 1.2-0.3 0.7 0 1.3 0 0.5 0 1 0 0.6 0.1 1.1 0.2 0.5 0.2 1 0.3 0.4 0.2 0.9 0.5 0.4 0.2 0.8 0.5 0.4 0.3 0.7 0.6 0.4 0.3 0.6 0.7 0.3 0.4 0.5 0.8v-0.9q0-0.5 0.2-1.1 0.1-0.5 0.5-0.9 0.4-0.3 0.9-0.5 0.6-0.2 1.1-0.1 0.5-0.1 0.9 0 0.5 0.1 0.8 0.4 0.4 0.3 0.6 0.7 0.2 0.4 0.3 0.9 0 0 0 0.1 0 0.1 0 0.2 0 0.1 0 0.2 0 0 0 0.1v16.2q0 5-2.7 7.5-2.6 2.5-7.6 2.5zm-0.2-12.5q0.6 0.1 1.1 0 0.6-0.1 1.1-0.4 0.5-0.2 0.9-0.5 0.4-0.3 0.8-0.7 0.4-0.5 0.7-1.1 0.2-0.5 0.4-1.1 0.2-0.6 0.3-1.2 0.1-0.6 0-1.2 0.1-0.6 0-1.2-0.1-0.6-0.3-1.2-0.2-0.6-0.4-1.1-0.3-0.6-0.7-1.1-0.7-0.7-1.7-1.2-1-0.4-2-0.4-1.1-0.1-2.1 0.3-1 0.4-1.7 1.1-0.1 0.1-0.1 0.1 0 0 0 0-0.1 0.1-0.1 0.1 0 0 0 0-0.4 0.5-0.7 1-0.3 0.6-0.5 1.2-0.1 0.6-0.2 1.2-0.1 0.6-0.1 1.2 0 0.6 0.1 1.2 0.1 0.6 0.2 1.2 0.2 0.6 0.5 1.1 0.3 0.6 0.7 1.1 0.3 0.4 0.8 0.7 0.4 0.3 0.9 0.5 0.5 0.3 1.1 0.4 0.5 0.1 1 0z"/>
					<path id="Trazado_20830" fill-rule="evenodd" class="s0" d="m73.4 31.7q-0.7 0-1.4-0.1-0.7-0.1-1.4-0.2-0.7-0.2-1.4-0.5-0.7-0.2-1.3-0.5-0.6-0.4-1.1-0.8-0.6-0.4-1-0.8-0.5-0.5-0.9-1-0.4-0.6-0.7-1.2-0.3-0.6-0.6-1.3-0.2-0.7-0.4-1.4-0.1-0.7-0.2-1.5-0.1-0.7-0.1-1.4 0-0.8 0.1-1.5 0.1-0.8 0.2-1.5 0.2-0.7 0.4-1.4 0.3-0.7 0.6-1.3 0.3-0.6 0.7-1.1 0.4-0.6 0.9-1 0.4-0.5 1-0.9 0.5-0.4 1.1-0.7 1.3-0.7 2.7-1 1.4-0.3 2.8-0.3 1.5 0 2.9 0.3 1.4 0.3 2.7 1 0.5 0.3 1.1 0.7 0.5 0.4 1 0.9 0.4 0.4 0.8 1 0.4 0.5 0.7 1.1 0.4 0.6 0.6 1.3 0.3 0.7 0.4 1.4 0.2 0.7 0.3 1.5 0 0.7 0 1.5 0 0.7 0 1.4-0.1 0.8-0.3 1.5-0.1 0.7-0.4 1.4-0.2 0.7-0.6 1.3-0.3 0.6-0.7 1.2-0.4 0.5-0.8 1-0.5 0.4-1 0.8-0.5 0.4-1.1 0.8-0.6 0.3-1.3 0.5-0.7 0.3-1.4 0.5-0.7 0.1-1.4 0.2-0.7 0.1-1.5 0.1m0-4q0.6 0 1.1-0.1 0.5-0.1 1-0.3 0.5-0.3 0.9-0.6 0.5-0.3 0.8-0.7 0.4-0.5 0.7-1.1 0.3-0.6 0.5-1.3 0.1-0.6 0.2-1.3 0.1-0.6 0-1.3 0.1-0.7 0-1.3-0.1-0.7-0.2-1.3-0.2-0.7-0.5-1.3-0.3-0.6-0.7-1.1-0.7-0.8-1.6-1.2-0.9-0.4-2-0.5-1 0-1.9 0.3-1 0.4-1.8 1.1-0.1 0.1-0.3 0.3-0.4 0.5-0.6 1.1-0.3 0.6-0.5 1.3-0.2 0.6-0.3 1.3 0 0.6 0 1.3 0 0.7 0 1.3 0.1 0.7 0.3 1.3 0.2 0.7 0.5 1.3 0.3 0.6 0.6 1.1 0.4 0.4 0.8 0.7 0.4 0.4 0.9 0.6 0.5 0.2 1.1 0.3 0.5 0.1 1 0.1z"/>
					<path id="Trazado_20831" class="s0" d="m97.4 31.7q-8.1 0-8.1-8.1v-9h-2.2q-2.1 0.1-2.1-2 0-2 2.1-2h2.2v-3.7c0-0.7 0.3-1.4 0.8-1.9 0.5-0.5 1.1-0.8 1.8-0.8 0.7 0 1.4 0.3 1.9 0.8 0.5 0.5 0.8 1.2 0.8 1.9v3.8h4.4q2.1 0 2.1 2 0 2-2.1 2h-4.4v8.6q-0.1 0.4 0 0.8 0 0.4 0.1 0.8 0.1 0.4 0.3 0.7 0.2 0.4 0.4 0.7 0.3 0.3 0.6 0.5 0.4 0.2 0.8 0.3 0.3 0.1 0.7 0.2 0.4 0 0.8 0 0.1 0 0.3 0 0.2 0 0.3 0 0.2 0 0.3-0.1 0.2 0 0.4 0 0.1-0.1 0.2-0.1 0.1 0 0.2 0 0.2 0 0.3-0.1 0.1 0 0.3 0 0.1 0 0.2 0 0.1 0 0.2 0.1 0.1 0 0.2 0.1 0.1 0 0.2 0.1 0.1 0.2 0.2 0.4 0 0.1 0.1 0.3 0 0.2 0 0.4 0.1 0.2 0 0.4 0 0.2 0 0.4 0 0.1 0 0.3-0.1 0.2-0.1 0.4-0.1 0.2-0.1 0.4-0.1 0.1-0.2 0.3-0.1 0.1-0.2 0.2-0.2 0.1-0.3 0.2-0.2 0.1-0.3 0.2-0.2 0-0.4 0.1-0.2 0-0.4 0-0.1 0.1-0.3 0.1-0.2 0.1-0.4 0.1-0.2 0-0.4 0-0.1 0.1-0.3 0.1-0.2 0-0.4 0-0.2 0-0.4 0"/>
					<path id="Trazado_20832" class="s0" d="m107.3 6.5q-0.3 0-0.6 0-0.3-0.1-0.6-0.2-0.3 0-0.6-0.2-0.2-0.1-0.5-0.3-0.4-0.5-0.6-1-0.2-0.5-0.2-1.1 0-0.6 0.2-1.1 0.2-0.5 0.6-0.9 0.3-0.2 0.5-0.4 0.3-0.1 0.6-0.2 0.3-0.1 0.6-0.1 0.3-0.1 0.6 0 3.1 0 3.1 2.7c0 1.9-1 2.8-3.1 2.8zm0 25q-0.3 0-0.5 0-0.3-0.1-0.5-0.2-0.3-0.1-0.5-0.2-0.2-0.2-0.4-0.3-0.2-0.3-0.3-0.5-0.2-0.3-0.3-0.5 0-0.3-0.1-0.6 0-0.3 0-0.6v-15.3q0-2.9 2.6-2.9c1.7 0 2.6 1 2.6 2.9v15.4q0.1 0.3 0 0.5 0 0.3-0.1 0.6-0.1 0.3-0.2 0.5-0.1 0.3-0.3 0.5-0.2 0.2-0.4 0.3-0.3 0.2-0.5 0.3-0.3 0.1-0.6 0.1-0.2 0.1-0.5 0"/>
					<path id="Trazado_20833" fill-rule="evenodd" class="s0" d="m118 39.1q-0.5 0.1-0.9 0-0.5-0.1-0.8-0.4-0.4-0.3-0.6-0.7-0.2-0.4-0.3-0.9 0-0.1 0-0.1 0-0.1 0-0.2 0-0.1 0-0.2 0 0 0-0.1v-23.5q0-2.7 2.6-2.6 0.4-0.1 0.9 0 0.4 0.1 0.8 0.4 0.4 0.3 0.6 0.7 0.2 0.4 0.3 0.9 0 0 0 0.1 0 0.1 0 0.2 0 0.1 0 0.1 0 0.1 0 0.2v0.9q0.2-0.4 0.5-0.8 0.3-0.4 0.6-0.7 0.4-0.4 0.7-0.6 0.4-0.3 0.8-0.5 0.5-0.3 1-0.5 0.5-0.2 1-0.3 0.5-0.1 1-0.2 0.5 0 1 0 0.7-0.1 1.3 0 0.6 0.1 1.2 0.3 0.6 0.1 1.2 0.4 0.5 0.2 1.1 0.6 0.5 0.3 0.9 0.7 0.5 0.4 0.9 0.9 0.4 0.4 0.7 1 0.4 0.5 0.6 1 0.3 0.7 0.5 1.4 0.3 0.7 0.4 1.4 0.2 0.7 0.2 1.5 0.1 0.7 0.1 1.4 0 0.8-0.1 1.5 0 0.7-0.2 1.4-0.1 0.7-0.4 1.4-0.2 0.7-0.5 1.4-0.2 0.6-0.5 1.1-0.4 0.5-0.8 1-0.4 0.5-0.8 0.9-0.5 0.4-1 0.8-0.5 0.3-1.1 0.5-0.6 0.3-1.2 0.4-0.6 0.2-1.2 0.3-0.6 0.1-1.3 0-0.5 0.1-1 0-0.5-0.1-1-0.2-0.5-0.1-0.9-0.3-0.5-0.2-1-0.4-0.4-0.2-0.8-0.5-0.4-0.2-0.7-0.6-0.3-0.3-0.6-0.7-0.3-0.3-0.5-0.7v8.3q0 0.4-0.1 0.9-0.1 0.4-0.4 0.8-0.3 0.4-0.7 0.6-0.4 0.3-0.8 0.3-0.1 0-0.2 0-0.1 0.1-0.2 0.1-0.1 0-0.1-0.1-0.1 0-0.2 0zm7.8-11.4q0.5 0 1-0.1 0.6-0.1 1.1-0.3 0.5-0.3 0.9-0.6 0.4-0.3 0.8-0.7 0.3-0.6 0.6-1.2 0.3-0.6 0.5-1.2 0.2-0.7 0.3-1.3 0-0.7 0-1.3 0-0.7 0-1.4-0.1-0.6-0.3-1.3-0.2-0.6-0.5-1.2-0.3-0.6-0.6-1.1-0.7-0.8-1.7-1.2-0.9-0.4-1.9-0.5-1 0-2 0.3-1 0.4-1.7 1.1l-0.3 0.3q-0.4 0.5-0.7 1.1-0.3 0.6-0.5 1.2-0.2 0.7-0.2 1.3-0.1 0.7 0 1.4-0.1 0.6 0 1.3 0 0.7 0.2 1.3 0.2 0.7 0.5 1.3 0.3 0.6 0.7 1.1 0.3 0.4 0.8 0.7 0.4 0.4 0.9 0.6 0.5 0.2 1 0.3 0.5 0.1 1.1 0.1z"/>
					<path id="Trazado_20834" fill-rule="evenodd" class="s0" d="m150 31.7q-0.7 0-1.4-0.1-0.8-0.1-1.5-0.2-0.7-0.2-1.3-0.5-0.7-0.2-1.3-0.5-0.6-0.4-1.1-0.8-0.6-0.4-1-0.8-0.5-0.5-0.9-1-0.4-0.6-0.7-1.2-0.3-0.6-0.6-1.3-0.2-0.7-0.4-1.4-0.2-0.7-0.2-1.4-0.1-0.8-0.1-1.5 0-0.7 0.1-1.5 0-0.7 0.2-1.4 0.2-0.7 0.4-1.4 0.3-0.7 0.6-1.4 0.3-0.6 0.7-1.1 0.4-0.5 0.9-1 0.4-0.5 1-0.9 0.5-0.4 1.1-0.7 1.3-0.6 2.7-0.9 1.4-0.4 2.8-0.4 1.4 0 2.9 0.4 1.4 0.3 2.7 0.9 0.5 0.3 1.1 0.7 0.5 0.4 0.9 0.9 0.5 0.5 0.9 1 0.4 0.5 0.7 1.1 0.3 0.7 0.6 1.4 0.2 0.7 0.4 1.4 0.2 0.7 0.2 1.4 0.1 0.8 0.1 1.5 0 0.7-0.1 1.5 0 0.7-0.2 1.4-0.2 0.7-0.4 1.4-0.3 0.7-0.6 1.4-0.3 0.6-0.7 1.1-0.4 0.5-0.9 1-0.4 0.5-0.9 0.9-0.6 0.4-1.2 0.7-0.6 0.3-1.3 0.6-0.6 0.2-1.3 0.4-0.7 0.2-1.5 0.3-0.7 0-1.4 0m0-4q0.5 0 1.1-0.1 0.5-0.1 1-0.3 0.5-0.2 0.9-0.5 0.4-0.4 0.8-0.8 0.4-0.5 0.7-1.1 0.2-0.6 0.4-1.3 0.2-0.6 0.3-1.3 0.1-0.6 0-1.3 0.1-0.7 0-1.3-0.1-0.7-0.3-1.3-0.1-0.7-0.4-1.3-0.3-0.6-0.7-1.1-0.7-0.7-1.6-1.2-1-0.4-2-0.4-1-0.1-2 0.3-0.9 0.3-1.7 1-0.1 0.1-0.3 0.3-0.4 0.5-0.7 1.1-0.3 0.6-0.4 1.3-0.2 0.6-0.3 1.3-0.1 0.6 0 1.3-0.1 0.7 0 1.3 0.1 0.7 0.3 1.3 0.2 0.7 0.4 1.3 0.3 0.6 0.7 1.1 0.4 0.4 0.8 0.8 0.4 0.3 0.9 0.5 0.5 0.2 1 0.3 0.6 0.1 1.1 0.1z"/>
				</g>
			</g>
		</g>
	</g>
</svg>